<svg width="40" height="41" viewBox="0 0 40 41" fill="none" xmlns="http://www.w3.org/2000/svg">
<g clip-path="url(#clip0_206_3172)">
<path d="M19.983 4.08301C10.783 4.08301 3.33301 11.5497 3.33301 20.7497C3.33301 29.9497 10.783 37.4163 19.983 37.4163C29.1997 37.4163 36.6663 29.9497 36.6663 20.7497C36.6663 11.5497 29.1997 4.08301 19.983 4.08301ZM19.9997 34.083C12.633 34.083 6.66634 28.1163 6.66634 20.7497C6.66634 13.383 12.633 7.41634 19.9997 7.41634C27.3663 7.41634 33.333 13.383 33.333 20.7497C33.333 28.1163 27.3663 34.083 19.9997 34.083ZM19.633 12.4163H19.533C18.8663 12.4163 18.333 12.9497 18.333 13.6163V21.483C18.333 22.0663 18.633 22.6163 19.1497 22.9163L26.0663 27.0663C26.633 27.3997 27.3663 27.233 27.6997 26.6663C28.0497 26.0997 27.8663 25.3497 27.283 25.0163L20.833 21.183V13.6163C20.833 12.9497 20.2997 12.4163 19.633 12.4163Z" fill="#E9BD25"/>
</g>
<defs>
<clipPath id="clip0_206_3172">
<rect width="40" height="40" fill="white" transform="translate(0 0.75)"/>
</clipPath>
</defs>
</svg>
