<svg width="40" height="41" viewBox="0 0 40 41" fill="none" xmlns="http://www.w3.org/2000/svg">
<g clip-path="url(#clip0_206_3156)">
<path d="M19.9998 20.7502C18.1665 20.7502 16.6665 19.2502 16.6665 17.4168C16.6665 15.5835 18.1665 14.0835 19.9998 14.0835C21.8332 14.0835 23.3332 15.5835 23.3332 17.4168C23.3332 19.2502 21.8332 20.7502 19.9998 20.7502ZM29.9998 17.7502C29.9998 11.7002 25.5832 7.41683 19.9998 7.41683C14.4165 7.41683 9.99984 11.7002 9.99984 17.7502C9.99984 21.6502 13.2498 26.8168 19.9998 32.9835C26.7498 26.8168 29.9998 21.6502 29.9998 17.7502ZM19.9998 4.0835C26.9998 4.0835 33.3332 9.45016 33.3332 17.7502C33.3332 23.2835 28.8832 29.8335 19.9998 37.4168C11.1165 29.8335 6.6665 23.2835 6.6665 17.7502C6.6665 9.45016 12.9998 4.0835 19.9998 4.0835Z" fill="#E9BD25"/>
</g>
<defs>
<clipPath id="clip0_206_3156">
<rect width="40" height="40" fill="white" transform="translate(0 0.75)"/>
</clipPath>
</defs>
</svg>
