<svg width="24" height="25" viewBox="0 0 24 25" fill="none" xmlns="http://www.w3.org/2000/svg">
<path d="M12.001 9.74463C11.2054 9.74463 10.4423 10.0607 9.87968 10.6233C9.31707 11.1859 9.001 11.949 9.001 12.7446C9.001 13.5403 9.31707 14.3033 9.87968 14.8659C10.4423 15.4286 11.2054 15.7446 12.001 15.7446C12.7966 15.7446 13.5597 15.4286 14.1223 14.8659C14.6849 14.3033 15.001 13.5403 15.001 12.7446C15.001 11.949 14.6849 11.1859 14.1223 10.6233C13.5597 10.0607 12.7966 9.74463 12.001 9.74463ZM12.001 7.74463C13.3271 7.74463 14.5989 8.27141 15.5365 9.2091C16.4742 10.1468 17.001 11.4185 17.001 12.7446C17.001 14.0707 16.4742 15.3425 15.5365 16.2802C14.5989 17.2178 13.3271 17.7446 12.001 17.7446C10.6749 17.7446 9.40315 17.2178 8.46547 16.2802C7.52778 15.3425 7.001 14.0707 7.001 12.7446C7.001 11.4185 7.52778 10.1468 8.46547 9.2091C9.40315 8.27141 10.6749 7.74463 12.001 7.74463ZM18.501 7.49463C18.501 7.82615 18.3693 8.14409 18.1349 8.37851C17.9005 8.61293 17.5825 8.74463 17.251 8.74463C16.9195 8.74463 16.6015 8.61293 16.3671 8.37851C16.1327 8.14409 16.001 7.82615 16.001 7.49463C16.001 7.16311 16.1327 6.84517 16.3671 6.61075C16.6015 6.37632 16.9195 6.24463 17.251 6.24463C17.5825 6.24463 17.9005 6.37632 18.1349 6.61075C18.3693 6.84517 18.501 7.16311 18.501 7.49463ZM12.001 4.74463C9.527 4.74463 9.123 4.75163 7.972 4.80263C7.188 4.83963 6.662 4.94463 6.174 5.13463C5.76562 5.28457 5.39641 5.52489 5.094 5.83763C4.78101 6.14003 4.54035 6.50921 4.39 6.91763C4.2 7.40763 4.095 7.93263 4.059 8.71563C4.007 9.81963 4 10.2056 4 12.7446C4 15.2196 4.007 15.6226 4.058 16.7736C4.095 17.5566 4.2 18.0836 4.389 18.5706C4.559 19.0056 4.759 19.3186 5.091 19.6506C5.428 19.9866 5.741 20.1876 6.171 20.3536C6.665 20.5446 7.191 20.6506 7.971 20.6866C9.075 20.7386 9.461 20.7446 12 20.7446C14.475 20.7446 14.878 20.7376 16.029 20.6866C16.811 20.6496 17.337 20.5446 17.826 20.3556C18.234 20.205 18.6031 19.9647 18.906 19.6526C19.243 19.3166 19.444 19.0036 19.61 18.5726C19.8 18.0806 19.906 17.5546 19.942 16.7726C19.994 15.6696 20 15.2826 20 12.7446C20 10.2706 19.993 9.86663 19.942 8.71563C19.905 7.93363 19.799 7.40563 19.61 6.91763C19.4593 6.50965 19.219 6.14061 18.907 5.83763C18.6047 5.52447 18.2355 5.2838 17.827 5.13363C17.337 4.94363 16.811 4.83863 16.029 4.80263C14.926 4.75063 14.54 4.74463 12 4.74463M12 2.74463C14.717 2.74463 15.056 2.75463 16.123 2.80463C17.187 2.85463 17.913 3.02163 18.55 3.26963C19.21 3.52363 19.766 3.86763 20.322 4.42263C20.8305 4.92252 21.224 5.52722 21.475 6.19463C21.722 6.83163 21.89 7.55763 21.94 8.62263C21.987 9.68863 22 10.0276 22 12.7446C22 15.4616 21.99 15.8006 21.94 16.8666C21.89 17.9316 21.722 18.6566 21.475 19.2946C21.2246 19.9624 20.8311 20.5672 20.322 21.0666C19.822 21.5749 19.2173 21.9684 18.55 22.2196C17.913 22.4666 17.187 22.6346 16.123 22.6846C15.056 22.7316 14.717 22.7446 12 22.7446C9.283 22.7446 8.944 22.7346 7.877 22.6846C6.813 22.6346 6.088 22.4666 5.45 22.2196C4.78233 21.9691 4.17753 21.5756 3.678 21.0666C3.16943 20.5668 2.77596 19.9621 2.525 19.2946C2.277 18.6576 2.11 17.9316 2.06 16.8666C2.012 15.8006 2 15.4616 2 12.7446C2 10.0276 2.01 9.68863 2.06 8.62263C2.11 7.55763 2.277 6.83263 2.525 6.19463C2.77524 5.52681 3.1688 4.92195 3.678 4.42263C4.17767 3.91386 4.78243 3.52036 5.45 3.26963C6.087 3.02163 6.812 2.85463 7.877 2.80463C8.945 2.75763 9.284 2.74463 12.001 2.74463" fill="#E9BD25"/>
</svg>
