<svg width="24" height="25" viewBox="0 0 24 25" fill="none" xmlns="http://www.w3.org/2000/svg">
<path d="M6.94043 5.74465C6.94017 6.27509 6.7292 6.78369 6.35394 7.15857C5.97868 7.53346 5.46986 7.74392 4.93943 7.74365C4.409 7.74339 3.90039 7.53242 3.52551 7.15716C3.15062 6.7819 2.94016 6.27309 2.94043 5.74265C2.9407 5.21222 3.15166 4.70362 3.52692 4.32873C3.90218 3.95385 4.411 3.74339 4.94143 3.74365C5.47186 3.74392 5.98047 3.95489 6.35535 4.33015C6.73024 4.70541 6.9407 5.21422 6.94043 5.74465ZM7.00043 9.22465H3.00043V21.7447H7.00043V9.22465ZM13.3204 9.22465H9.34043V21.7447H13.2804V15.1747C13.2804 11.5147 18.0504 11.1747 18.0504 15.1747V21.7447H22.0004V13.8147C22.0004 7.64465 14.9404 7.87465 13.2804 10.9047L13.3204 9.22465Z" fill="#E9BD25"/>
</svg>
