<svg width="24" height="25" viewBox="0 0 24 25" fill="none" xmlns="http://www.w3.org/2000/svg">
<path d="M8.18552 20.7446C15.6165 20.7446 19.6815 14.5874 19.6815 9.25724C19.6832 9.08412 19.6807 8.911 19.6741 8.73788C20.4653 8.16468 21.1483 7.45543 21.6913 6.64323C20.9517 6.96847 20.1684 7.18326 19.3665 7.28073C20.2115 6.77578 20.8443 5.98112 21.1473 5.04454C20.3538 5.51556 19.4848 5.84574 18.5788 6.02049C17.9698 5.37194 17.164 4.94229 16.2861 4.7981C15.4082 4.65391 14.5073 4.80323 13.7229 5.22292C12.9384 5.64261 12.3143 6.30925 11.9471 7.11958C11.5799 7.92992 11.4902 8.83872 11.6918 9.70522C10.0853 9.62505 8.51368 9.20791 7.0789 8.48087C5.64413 7.75384 4.3783 6.73317 3.36362 5.48513C2.84867 6.37511 2.69159 7.42766 2.92427 8.4292C3.15694 9.43075 3.76193 10.3063 4.61648 10.8781C3.97578 10.8574 3.34909 10.6853 2.78765 10.376V10.4313C2.78922 11.3634 3.11233 12.2665 3.70246 12.988C4.29259 13.7095 5.11358 14.2053 6.02686 14.3917C5.68014 14.4873 5.32195 14.5349 4.9623 14.5333C4.70868 14.5359 4.45546 14.5124 4.20665 14.4631C4.46435 15.2659 4.96695 15.9678 5.64391 16.4704C6.32087 16.973 7.13821 17.251 7.98122 17.2654C6.54881 18.389 4.78046 18.9988 2.95995 18.997C2.6391 18.9994 2.31844 18.9809 2 18.9416C3.84781 20.12 5.99396 20.7456 8.18552 20.7446Z" fill="#E9BD25"/>
</svg>
